<svg width="29" height="29" viewBox="0 0 29 29" fill="none" xmlns="http://www.w3.org/2000/svg">
<path fill-rule="evenodd" clip-rule="evenodd" d="M0 5.8C0 4.26174 0.61107 2.78649 1.69878 1.69878C2.78649 0.61107 4.26174 0 5.8 0H23.2C24.7383 0 26.2135 0.61107 27.3012 1.69878C28.3889 2.78649 29 4.26174 29 5.8V23.2C29 24.7383 28.3889 26.2135 27.3012 27.3012C26.2135 28.3889 24.7383 29 23.2 29H5.8C4.26174 29 2.78649 28.3889 1.69878 27.3012C0.61107 26.2135 0 24.7383 0 23.2V5.8ZM5.8 2.9C5.03087 2.9 4.29325 3.20553 3.74939 3.74939C3.20553 4.29325 2.9 5.03087 2.9 5.8V23.2C2.9 23.9691 3.20553 24.7068 3.74939 25.2506C4.29325 25.7945 5.03087 26.1 5.8 26.1H23.2C23.9691 26.1 24.7068 25.7945 25.2506 25.2506C25.7945 24.7068 26.1 23.9691 26.1 23.2V5.8C26.1 5.03087 25.7945 4.29325 25.2506 3.74939C24.7068 3.20553 23.9691 2.9 23.2 2.9H5.8ZM14.5 10.15C13.3463 10.15 12.2399 10.6083 11.4241 11.4241C10.6083 12.2399 10.15 13.3463 10.15 14.5C10.15 15.6537 10.6083 16.7601 11.4241 17.5759C12.2399 18.3917 13.3463 18.85 14.5 18.85C15.6537 18.85 16.7601 18.3917 17.5759 17.5759C18.3917 16.7601 18.85 15.6537 18.85 14.5C18.85 13.3463 18.3917 12.2399 17.5759 11.4241C16.7601 10.6083 15.6537 10.15 14.5 10.15ZM7.25 14.5C7.25 12.5772 8.01384 10.7331 9.37348 9.37348C10.7331 8.01384 12.5772 7.25 14.5 7.25C16.4228 7.25 18.2669 8.01384 19.6265 9.37348C20.9862 10.7331 21.75 12.5772 21.75 14.5C21.75 16.4228 20.9862 18.2669 19.6265 19.6265C18.2669 20.9862 16.4228 21.75 14.5 21.75C12.5772 21.75 10.7331 20.9862 9.37348 19.6265C8.01384 18.2669 7.25 16.4228 7.25 14.5ZM22.475 8.7C23.0518 8.7 23.6051 8.47085 24.013 8.06296C24.4208 7.65507 24.65 7.10185 24.65 6.525C24.65 5.94815 24.4208 5.39493 24.013 4.98704C23.6051 4.57915 23.0518 4.35 22.475 4.35C21.8982 4.35 21.3449 4.57915 20.937 4.98704C20.5292 5.39493 20.3 5.94815 20.3 6.525C20.3 7.10185 20.5292 7.65507 20.937 8.06296C21.3449 8.47085 21.8982 8.7 22.475 8.7Z" fill="#C13584"/>
</svg>
