<svg width="31" height="31" viewBox="0 0 31 31" fill="none" xmlns="http://www.w3.org/2000/svg">
<path fill-rule="evenodd" clip-rule="evenodd" d="M6.75002 0.916626C5.20292 0.916626 3.71919 1.53121 2.62523 2.62517C1.53127 3.71913 0.916687 5.20286 0.916687 6.74996V24.25C0.916687 25.7971 1.53127 27.2808 2.62523 28.3748C3.71919 29.4687 5.20292 30.0833 6.75002 30.0833H24.25C25.7971 30.0833 27.2808 29.4687 28.3748 28.3748C29.4688 27.2808 30.0834 25.7971 30.0834 24.25V6.74996C30.0834 5.20286 29.4688 3.71913 28.3748 2.62517C27.2808 1.53121 25.7971 0.916626 24.25 0.916626H6.75002ZM3.83335 6.74996C3.83335 5.97641 4.14064 5.23455 4.68763 4.68756C5.23461 4.14058 5.97647 3.83329 6.75002 3.83329H24.25C25.0236 3.83329 25.7654 4.14058 26.3124 4.68756C26.8594 5.23455 27.1667 5.97641 27.1667 6.74996V24.25C27.1667 25.0235 26.8594 25.7654 26.3124 26.3124C25.7654 26.8593 25.0236 27.1666 24.25 27.1666H6.75002C5.97647 27.1666 5.23461 26.8593 4.68763 26.3124C4.14064 25.7654 3.83335 25.0235 3.83335 24.25V6.74996ZM11.125 14.0416C11.125 13.6549 10.9714 13.2839 10.6979 13.0104C10.4244 12.7369 10.0535 12.5833 9.66669 12.5833C9.27991 12.5833 8.90898 12.7369 8.63549 13.0104C8.362 13.2839 8.20835 13.6549 8.20835 14.0416V22.7916C8.20835 23.1784 8.362 23.5493 8.63549 23.8228C8.90898 24.0963 9.27991 24.25 9.66669 24.25C10.0535 24.25 10.4244 24.0963 10.6979 23.8228C10.9714 23.5493 11.125 23.1784 11.125 22.7916V14.0416ZM11.8542 8.93746C11.8542 9.51762 11.6237 10.074 11.2135 10.4843C10.8032 10.8945 10.2468 11.125 9.66669 11.125C9.08653 11.125 8.53013 10.8945 8.11989 10.4843C7.70966 10.074 7.47919 9.51762 7.47919 8.93746C7.47919 8.3573 7.70966 7.8009 8.11989 7.39066C8.53013 6.98043 9.08653 6.74996 9.66669 6.74996C10.2468 6.74996 10.8032 6.98043 11.2135 7.39066C11.6237 7.8009 11.8542 8.3573 11.8542 8.93746ZM15.5 12.5833C15.9959 12.5833 16.4334 12.8312 16.6959 13.2075C17.4475 12.7978 18.2898 12.5832 19.1459 12.5833C22.2959 12.5833 24.25 15.392 24.25 17.791V22.7916C24.25 23.1784 24.0964 23.5493 23.8229 23.8228C23.5494 24.0963 23.1785 24.25 22.7917 24.25C22.4049 24.25 22.034 24.0963 21.7605 23.8228C21.487 23.5493 21.3334 23.1784 21.3334 22.7916V17.7895C21.3334 16.6695 20.3709 15.4985 19.1459 15.4985C18.3817 15.4985 17.5373 15.9141 16.9584 16.9029V22.7916C16.9584 23.1784 16.8047 23.5493 16.5312 23.8228C16.2577 24.0963 15.8868 24.25 15.5 24.25C15.1132 24.25 14.7423 24.0963 14.4688 23.8228C14.1953 23.5493 14.0417 23.1784 14.0417 22.7916V14.0416C14.0417 13.6549 14.1953 13.2839 14.4688 13.0104C14.7423 12.7369 15.1132 12.5833 15.5 12.5833Z" fill="#2867B2"/>
</svg>
