<svg width="51" height="15" viewBox="0 0 51 15" fill="none" xmlns="http://www.w3.org/2000/svg">
<path d="M32.5 7.3125C32.5 11.3547 29.2297 14.625 25.1875 14.625C21.1453 14.625 17.875 11.3547 17.875 7.3125C17.875 3.27031 21.1453 0 25.1875 0C29.2297 0 32.5 3.27031 32.5 7.3125ZM43.0625 0C39.0203 0 35.75 3.27031 35.75 7.3125C35.75 11.3547 39.0203 14.625 43.0625 14.625C47.1047 14.625 50.375 11.3547 50.375 7.3125C50.375 3.27031 47.1047 0 43.0625 0ZM7.3125 0C3.27031 0 0 3.27031 0 7.3125C0 11.3547 3.27031 14.625 7.3125 14.625C11.3547 14.625 14.625 11.3547 14.625 7.3125C14.625 3.27031 11.3547 0 7.3125 0Z" fill="white"/>
</svg>
