<svg width="31" height="26" viewBox="0 0 31 26" fill="none" xmlns="http://www.w3.org/2000/svg">
<path fill-rule="evenodd" clip-rule="evenodd" d="M19.6548 3.25124C18.9886 3.25096 18.3306 3.39861 17.7284 3.68352C17.1261 3.96842 16.5947 4.38349 16.1723 4.89875C15.75 5.41401 15.4473 6.01661 15.2862 6.66305C15.125 7.30949 15.1094 7.98365 15.2404 8.63687C15.2855 8.8632 15.2763 9.097 15.2135 9.31907C15.1506 9.54113 15.036 9.74511 14.879 9.91424C14.7219 10.0834 14.527 10.2128 14.3102 10.2919C14.0934 10.3711 13.8609 10.3976 13.6319 10.3694C10.4961 9.98416 7.54003 8.69513 5.12397 6.65937C5.16918 7.53728 5.47397 8.47062 6.13459 9.4477L7.1248 10.9119L5.49876 11.6046L5.18522 11.7387C5.41855 12.0056 5.69855 12.2783 6.01209 12.5481C6.43124 12.9069 6.87466 13.2363 7.33918 13.5339L7.35522 13.5442H7.35668L9.61418 14.9135L7.25168 16.0948C7.13501 16.1531 7.01834 16.2056 6.90168 16.2523C7.40967 16.6744 7.9693 17.0302 8.56709 17.311L10.5942 18.2692L8.89668 19.7333C7.97064 20.5325 7.03876 21.1289 5.8298 21.4439C7.68398 22.4316 9.75337 22.9461 11.8542 22.9417C18.8629 22.9417 24.5067 17.349 24.5067 10.4962V9.73791L25.1265 9.30187C26.0948 8.62228 26.7788 7.70353 27.2688 6.65208H24.1188L23.7221 5.82083C23.3568 5.0518 22.7809 4.40216 22.0612 3.94732C21.3416 3.49249 20.5076 3.25112 19.6563 3.25124H19.6548ZM3.2048 13.8971C3.06719 14.0547 2.9651 14.24 2.90546 14.4406C2.84582 14.6411 2.83004 14.8522 2.85918 15.0594C3.02397 16.2275 3.72251 17.2337 4.49543 18.0023C4.70543 18.2108 4.93001 18.4106 5.16626 18.6017L5.05689 18.6308C4.35543 18.8058 3.40897 18.8423 1.83251 18.6892C1.53481 18.6599 1.23532 18.723 0.974654 18.8697C0.713989 19.0165 0.504757 19.2398 0.375327 19.5095C0.245898 19.7792 0.202532 20.0822 0.251109 20.3773C0.299686 20.6725 0.437857 20.9456 0.646887 21.1596C2.10635 22.6513 3.84981 23.8357 5.77442 24.6427C7.69902 25.4497 9.76577 25.863 11.8527 25.8583C20.1842 25.8583 27.0179 19.3892 27.4044 11.2254C29.2856 9.64603 30.2263 7.50666 30.7338 5.5627C30.7902 5.34694 30.7964 5.12112 30.7518 4.90259C30.7073 4.68406 30.6133 4.47866 30.4769 4.30218C30.3406 4.12569 30.1656 3.98283 29.9654 3.88458C29.7652 3.78632 29.5451 3.73529 29.3221 3.73541H25.8906C25.0513 2.43213 23.8247 1.42459 22.3832 0.854374C20.9417 0.284155 19.3578 0.179917 17.854 0.556307C16.3502 0.932696 15.0021 1.7708 13.9992 2.95283C12.9963 4.13487 12.389 5.60144 12.2625 7.14645C9.5743 6.44667 7.16904 4.93096 5.37772 2.80791C5.21908 2.62034 5.01563 2.47589 4.78625 2.38795C4.55687 2.30002 4.30899 2.27146 4.06562 2.30491C3.82225 2.33837 3.59127 2.43277 3.39413 2.57934C3.19699 2.72591 3.04007 2.91991 2.93793 3.14333C2.05418 5.07124 1.88501 7.29374 2.87084 9.55416L2.52959 9.69999C2.20304 9.83914 1.93844 10.0926 1.78541 10.4129C1.63238 10.7332 1.60143 11.0983 1.69834 11.4398C1.96959 12.3906 2.57918 13.2306 3.20335 13.8971H3.2048Z" fill="#1DA1F2"/>
</svg>
